Coordinates
version=1
nRows=24
nColumns=19
inDegrees=yes

Units are S.I. units (second, meters, Newtons, ...)
If the header above contains a line with 'inDegrees', this indicates whether rotational values are in degrees (yes) or radians (no).

endheader
time	pelvis_tilt	pelvis_list	pelvis_rotation	pelvis_tx	pelvis_ty	pelvis_tz	hip_flexion_r	hip_adduction_r	hip_rotation_r	knee_angle_r	knee_angle_r_beta	ankle_angle_r	hip_flexion_l	hip_adduction_l	hip_rotation_l	knee_angle_l	knee_angle_l_beta	ankle_angle_l
     13.41333333	     -4.55783310	      7.29328263	      0.85879742	      2.35865058	      1.07422775	      1.01274973	     -9.61503014	     -9.17545535	     -7.41812017	     39.19035050	      0.68400065	    -16.51248158	     22.69938000	      8.84776941	    -13.86452422	     12.62453015	      0.22033962	     -5.85415225
     13.42000000	     -4.10707058	      8.08240693	      1.01032853	      2.35891897	      1.07089345	      1.01241813	     -9.47285753	    -10.31086904	     -7.56827402	     41.54043270	      0.72501732	    -15.51172470	     22.18915701	      9.87869971	    -13.89358583	     13.21252205	      0.23060201	     -5.84010332
     13.42666667	     -3.56215702	      8.73929925	      1.18978731	      2.35884153	      1.06731961	      1.01219351	     -9.36101691	    -11.22903861	     -7.54055521	     43.92446346	      0.76662651	    -14.36810765	     21.69423758	     10.73310121	    -13.77336135	     14.30387423	      0.24964970	     -5.45222484
     13.43333333	     -3.07247990	      9.49203523	      1.28598300	      2.35871387	      1.06328536	      1.01204050	     -9.07655218	    -12.31162538	     -7.47267207	     46.43261747	      0.81040206	    -13.44253526	     21.32426808	     11.60760022	    -13.85114936	     15.75904574	      0.27504724	     -4.79782975
     13.44000000	     -2.54424454	     10.13155385	      1.41135118	      2.35843296	      1.05899350	      1.01199688	     -8.78703650	    -13.19523805	     -7.25688781	     48.92272196	      0.85386258	    -12.45828487	     20.94302616	     12.35172165	    -13.79372572	     17.50999108	      0.30560700	     -3.70667396
     13.44666667	     -2.03556594	     10.73959799	      1.52307170	      2.35796835	      1.05441268	      1.01208682	     -8.38454643	    -14.02966398	     -6.95501722	     51.45357024	      0.89803421	    -11.57180519	     20.61934749	     13.02280710	    -13.76175055	     19.51809523	      0.34065503	     -2.26387347
     13.45333333	     -1.52022937	     11.25959203	      1.61654370	      2.35734255	      1.04963973	      1.01229054	     -7.90517983	    -14.75579641	     -6.58569694	     54.00327666	      0.94253498	    -10.70830392	     20.24999661	     13.59869234	    -13.66136796	     21.59005908	      0.37681762	     -0.45724040
     13.46000000	     -2.19079679	     11.39440645	      1.43612511	      2.35630821	      1.04339004	      1.01281933	     -5.68975832	    -15.09283129	     -5.37943101	     56.90382496	      0.99315910	     -9.87416920	     21.37860323	     13.54634147	    -14.11229951	     24.11244045	      0.42084148	      1.54109395
     13.46666667	     -1.97150627	     11.67526648	      1.47208086	      2.35516368	      1.03808588	      1.01340204	     -4.62291872	    -15.48258582	     -4.67446255	     59.53104016	      1.03901266	     -9.02658197	     21.35783286	     13.78565980	    -14.09971825	     26.40321413	      0.46082302	      3.79869412
     13.47333333	     -1.78548566	     11.90529367	      1.47672931	      2.35380630	      1.03275198	      1.01419204	     -3.41942039	    -15.78557223	     -3.88702261	     62.15338940	      1.08478129	     -8.16494602	     21.33523658	     13.94678127	    -14.09957486	     28.64541838	      0.49995687	      6.16145024
     13.48000000	     -1.57465349	     12.07045634	      1.47012280	      2.35220033	      1.02755411	      1.01514547	     -2.15928118	    -15.98089576	     -3.06494318	     64.73533937	      1.12984481	     -7.28290213	     21.24615624	     14.02611838	    -14.07535991	     30.81728026	      0.53786301	      8.54973354
     13.48666667	     -1.31681706	     12.17381545	      1.45388302	      2.35033729	      1.02258913	      1.01623503	     -0.87439994	    -16.06814234	     -2.22222278	     67.26140023	      1.17393289	     -6.36322008	     21.06137154	     14.03298634	    -14.00228883	     32.88955159	      0.57403096	     10.88971900
     13.49333333	     -1.16192390	     12.27252831	      1.45784315	      2.34835339	      1.01774580	      1.01736884	      0.58644110	    -16.14893578	     -1.40253001	     69.73887751	      1.21717303	     -5.41629726	     20.92849830	     14.03644789	    -13.89136590	     34.83084048	      0.60791285	     13.07746761
     13.50000000	     -0.48230130	     12.46950562	      1.60876325	      2.34636254	      1.01376797	      1.01828143	      1.36076896	    -16.41362178	     -1.04316848	     71.99442857	      1.25653982	     -4.41149479	     20.07426353	     14.23647731	    -13.52654854	     36.51083517	      0.63723429	     15.14584189
     13.50666667	      0.16200012	     12.61592570	      1.72377194	      2.34413767	      1.01015489	      1.01928754	      2.26850166	    -16.54118147	     -0.50982051	     74.16818061	      1.29447895	     -3.53700849	     19.21689040	     14.40588239	    -12.99867109	     38.06056882	      0.66428224	     16.92372478
     13.51333333	     -0.50104406	     12.37262389	      1.42246145	      2.34191937	      1.00542419	      1.02059145	      5.01596413	    -16.17493464	      0.85775214	     76.48803857	      1.33496811	     -2.53451270	     19.85617543	     13.89958832	    -13.24042840	     39.67426361	      0.69244653	     18.54990569
     13.52000000	      0.15458232	     12.43855903	      1.57724389	      2.33970948	      1.00275519	      1.02126589	      5.94243738	    -16.27326467	      1.22853179	     78.34829440	      1.36743570	     -1.76882612	     18.76482594	     14.05195453	    -12.55210546	     40.79788186	      0.71205737	     19.83421102
     13.52666667	      0.07774830	     12.34091484	      1.35080540	      2.33776728	      0.99945513	      1.02213459	      7.92255390	    -16.20000125	      2.08995921	     80.22375546	      1.40016867	     -0.70593732	     18.46141634	     13.79387807	    -12.61830503	     41.88166794	      0.73097300	     21.16323866
     13.53333333	      0.51937211	     12.29136488	      1.45404228	      2.33592741	      0.99742130	      1.02252641	      9.10136971	    -16.24203744	      2.41145019	     81.74357714	      1.42669456	      0.17041821	     17.36132098	     13.79756525	    -12.07296268	     42.62011110	      0.74386127	     22.21318834
     13.54000000	      0.90968140	     12.18133450	      1.55767654	      2.33416768	      0.99593253	      1.02275084	     10.33843821	    -16.23244670	      2.70026514	     83.06674265	      1.44978816	      0.91298710	     16.17978179	     13.75970345	    -11.48261467	     43.10516267	      0.75232701	     23.05687851
     13.54666667	      1.16206404	     12.01523408	      1.61654281	      2.33266971	      0.99476557	      1.02287943	     11.71050577	    -16.20193194	      2.96046844	     84.18795138	      1.46935694	      1.72328209	     15.01361978	     13.64189228	    -11.00551149	     43.37309189	      0.75700326	     23.84952597
     13.55333333	      0.73291555	     11.93474597	      1.18392083	      2.33134620	      0.99321705	      1.02352331	     14.12258617	    -16.08560046	      3.95193896	     85.29112465	      1.48861095	      2.44396927	     14.53138323	     13.45400392	    -11.25658011	     43.39073351	      0.75731116	     24.46606885
     13.56000000	      0.82250100	     11.63211792	      1.36474603	      2.33014822	      0.99306466	      1.02336595	     15.54127386	    -15.90164637	      4.00480041	     85.93979735	      1.49993242	      3.09176451	     13.25962227	     13.25909448	    -10.64369528	     43.19089689	      0.75382336	     24.95744875
     13.56666667	      0.78013924	     11.29475576	      1.54139324	      2.32921904	      0.99330519	      1.02317901	     17.04310594	    -15.69317245	      3.99376621	     86.35699128	      1.50721383	      3.74004272	     12.00415087	     13.01580603	    -10.09246104	     42.76990138	      0.74647560	     25.35904037
